<svg xmlns="http://www.w3.org/2000/svg" version="1.1" xmlns:xlink="http://www.w3.org/1999/xlink" width="689.85" height="655.09"><svg xmlns="http://www.w3.org/2000/svg" version="1.1" xmlns:xlink="http://www.w3.org/1999/xlink" width="689.85" height="655.09"><svg id="Calque_2" xmlns="http://www.w3.org/2000/svg" viewBox="0 0 689.85 655.09"><g id="Calque_1-2"><path d="M674.31,325.83c-3.23-9.09-13.49-13.78-22.87-10.56-9.09,3.52-13.78,13.49-10.56,22.87,8.5,23.16,12.9,47.5,12.9,72.42,0,115.23-93.82,209.05-209.05,209.05s-209.05-93.82-209.05-209.05,93.82-209.05,209.05-209.05c48.38,0,95.58,17.01,132.82,47.79,7.62,6.16,18.76,5.28,24.92-2.35,6.16-7.62,5.28-18.76-2.35-24.92-43.69-36.06-98.81-55.71-155.69-55.71-43.98,0-85.03,11.73-120.5,31.96,3.23-14.66,4.98-29.91,3.81-45.45-3.23-43.69-23.16-83.85-56.29-112.59C238.91,11.52,196.39-2.55,152.71,.38,108.73,3.61,68.85,23.54,40.12,56.67,9.33,92.15-4.74,139.36,1.42,185.97c1.17,9.68,10.26,16.42,19.94,15.25,9.68-1.17,16.71-10.26,15.25-19.94-4.98-36.65,6.16-73.59,30.49-101.45,22.58-26.09,53.95-41.63,88.25-43.98,34.01-2.64,67.44,8.5,93.53,31.08,53.66,46.62,59.52,128.13,12.9,181.78-46.62,53.66-128.13,59.52-181.78,12.9-7.33-6.45-18.47-5.57-24.92,1.76-6.45,7.33-5.57,18.47,1.76,24.92,30.2,26.09,68.02,40.17,107.6,40.17,3.81,0,7.92,0,11.73-.29,14.95-1.17,29.03-4.69,42.51-9.38-11.43,28.44-17.89,59.23-17.89,91.77,0,6.16,.59,12.02,.88,18.18-4.1-2.35-7.92-4.98-12.02-7.04-28.73-13.19-60.99-14.66-90.89-3.81-61.28,22.58-92.94,90.89-70.37,152.46,17.59,48.08,63.04,77.7,111.71,77.7,13.49,0,27.27-2.35,40.75-7.33h0c36.94-13.49,62.74-43.69,72.71-78.87,44.86,56.59,114.05,93.24,191.75,93.24,134.87,0,244.53-109.66,244.53-244.53,0-29.32-4.98-57.76-14.95-84.73h-.59ZM168.25,607.59c-20.82,7.62-43.39,6.74-63.62-2.64s-35.48-26.09-43.1-46.91c-15.83-43.1,6.45-90.89,49.26-106.72,9.38-3.52,19.06-5.28,28.73-5.28,12.02,0,23.75,2.64,34.89,7.62,20.23,9.38,35.48,26.09,43.1,46.91,15.83,43.1-6.45,90.89-49.26,106.72v.29Z"></path></g></svg></svg><style>@media (prefers-color-scheme: light) { :root { filter: none; } }
@media (prefers-color-scheme: dark) { :root { filter: none; } }
</style></svg>