<?xml version="1.0" standalone="no"?>
<!DOCTYPE svg PUBLIC "-//W3C//DTD SVG 20010904//EN"
 "http://www.w3.org/TR/2001/REC-SVG-20010904/DTD/svg10.dtd">
<svg version="1.0" xmlns="http://www.w3.org/2000/svg"
 width="1024.000000pt" height="1024.000000pt" viewBox="0 0 1024.000000 1024.000000"
 preserveAspectRatio="xMidYMid meet">
<metadata>
Created by potrace 1.14, written by Peter Selinger 2001-2017
</metadata>
<g transform="translate(0.000000,1024.000000) scale(0.100000,-0.100000)"
fill="#000000" stroke="none">
<path d="M2468 10015 c-3 -3 -29 -7 -59 -10 -67 -6 -136 -14 -169 -21 -14 -3
-39 -7 -57 -9 -17 -3 -43 -9 -56 -14 -14 -6 -27 -7 -30 -4 -3 3 -12 1 -19 -3
-7 -4 -19 -9 -28 -10 -60 -9 -218 -57 -320 -97 -30 -12 -28 -12 -62 -21 -16
-5 -28 -11 -28 -15 0 -4 -6 -8 -12 -8 -20 0 -172 -73 -180 -86 -4 -7 -8 -8 -8
-3 0 5 -6 4 -12 -2 -7 -5 -44 -26 -82 -47 -211 -115 -444 -305 -661 -539 -29
-31 -146 -179 -187 -236 -90 -126 -198 -317 -262 -460 -33 -76 -86 -214 -90
-236 -3 -13 -7 -28 -11 -34 -3 -5 -8 -20 -11 -32 -9 -38 -12 -53 -14 -55 -2
-2 -3 -6 -4 -10 -2 -5 -8 -27 -15 -51 -7 -24 -14 -56 -16 -72 -2 -16 -6 -33
-8 -37 -3 -5 -8 -27 -11 -49 -4 -22 -8 -49 -10 -61 -23 -119 -31 -227 -30
-453 0 -203 5 -310 19 -380 5 -24 8 -40 22 -120 38 -223 129 -486 251 -725 25
-49 50 -100 56 -112 6 -13 14 -23 19 -23 4 0 7 -5 7 -11 0 -18 174 -272 221
-322 8 -8 25 -30 39 -48 32 -43 253 -265 305 -306 22 -17 65 -52 95 -76 278
-221 714 -425 1050 -491 14 -2 50 -10 80 -16 75 -15 137 -23 270 -36 78 -8
371 -8 420 -1 19 3 61 9 92 12 l56 7 -4 -44 c-3 -23 -8 -45 -12 -48 -4 -3 -7
-16 -8 -30 -1 -25 -10 -99 -20 -155 -3 -16 -7 -43 -9 -60 -2 -16 -4 -30 -5
-30 -1 0 -12 -149 -13 -180 -1 -20 -4 -20 -132 12 -71 18 -152 36 -179 38 -27
3 -53 8 -58 11 -15 10 -355 12 -433 3 -243 -27 -452 -88 -670 -194 -115 -56
-274 -153 -344 -210 -126 -103 -280 -256 -329 -326 -9 -13 -21 -28 -28 -34
-26 -23 -148 -220 -198 -321 -52 -105 -113 -249 -120 -283 -2 -9 -5 -23 -8
-31 -14 -37 -49 -174 -53 -205 -9 -63 -18 -123 -21 -140 -3 -11 -7 -58 -10
-104 -3 -47 -7 -88 -10 -93 -3 -4 0 -8 6 -8 7 0 8 -7 3 -17 -7 -16 -9 -47 -4
-63 1 -3 4 -48 6 -100 3 -52 7 -106 11 -120 3 -14 7 -38 9 -55 2 -16 6 -42 9
-57 3 -16 8 -40 11 -55 3 -16 11 -46 17 -68 6 -22 11 -44 13 -50 1 -5 5 -17 8
-25 3 -8 15 -46 28 -85 12 -38 31 -90 43 -115 11 -25 21 -47 22 -50 9 -33 28
-70 35 -70 5 0 9 -6 9 -14 0 -8 10 -32 22 -53 33 -58 141 -227 149 -233 4 -3
24 -27 44 -55 114 -150 301 -319 475 -430 41 -26 86 -55 100 -64 14 -8 27 -16
30 -17 3 0 50 -22 105 -48 155 -73 198 -89 359 -131 100 -25 113 -28 196 -41
25 -3 59 -8 75 -11 53 -8 375 -11 380 -3 2 4 18 6 35 5 16 -1 30 1 30 4 0 3
15 6 33 7 31 1 77 7 127 18 47 11 70 16 93 22 12 3 27 6 32 7 6 2 16 6 23 10
6 5 12 6 12 2 0 -3 15 1 33 8 17 8 35 15 39 16 22 5 45 13 60 22 10 5 23 9 29
9 7 0 50 18 96 40 47 22 89 40 94 40 5 0 9 5 9 11 0 5 4 8 9 4 6 -3 14 3 20
12 6 10 11 15 11 11 0 -9 124 62 128 74 2 4 8 8 13 8 6 0 15 5 22 10 7 6 44
34 82 62 82 61 290 267 356 353 39 51 88 124 156 233 l14 23 37 -35 c91 -85
110 -102 141 -126 18 -14 40 -32 49 -41 55 -53 353 -261 452 -315 19 -10 43
-25 53 -33 9 -8 17 -10 17 -5 0 5 4 4 8 -2 8 -12 201 -111 292 -149 36 -15 80
-34 97 -41 18 -8 36 -15 40 -15 5 0 13 -4 18 -9 8 -6 98 -39 125 -45 3 -1 16
-6 30 -12 14 -6 41 -14 60 -18 19 -4 40 -11 45 -16 6 -4 22 -9 35 -11 14 -2
31 -7 38 -11 6 -5 12 -6 12 -3 0 3 12 1 28 -5 15 -6 38 -13 51 -15 12 -3 53
-12 90 -21 36 -8 75 -16 86 -18 11 -1 20 -3 20 -5 0 -1 14 -3 30 -6 17 -2 59
-8 95 -14 91 -15 127 -20 190 -26 30 -3 73 -7 95 -10 60 -8 498 -12 510 -5 6
3 21 6 35 7 74 5 190 15 211 19 13 3 44 8 69 11 25 3 54 8 65 11 11 4 34 7 50
9 17 1 48 7 70 13 22 6 58 13 80 17 22 3 44 9 50 12 5 3 18 7 30 9 26 3 46 8
65 16 8 3 49 15 90 27 73 21 144 44 185 60 11 4 36 14 55 21 19 6 59 23 88 36
29 12 55 23 57 23 3 0 40 17 82 37 43 20 80 37 83 38 3 0 16 7 30 15 14 7 48
26 76 40 119 63 175 97 307 186 48 32 95 64 104 69 9 6 26 17 37 27 12 9 58
46 104 81 235 185 471 428 660 682 94 126 93 125 109 151 7 10 38 60 69 109
32 50 71 117 88 150 17 33 34 62 37 65 10 8 122 244 122 258 0 6 4 12 9 12 4
0 8 7 8 15 0 8 4 23 10 33 23 40 102 262 134 377 8 28 21 75 30 107 8 31 17
67 20 80 3 12 8 34 11 48 3 14 8 39 10 55 3 17 8 37 10 45 2 8 6 33 10 55 3
22 7 47 10 55 2 8 6 36 9 63 3 26 9 68 12 95 3 26 8 58 11 72 7 33 13 632 6
644 -3 4 -7 31 -9 60 -6 84 -21 204 -35 276 -6 30 -12 64 -14 75 -2 11 -6 32
-9 48 -3 15 -8 37 -11 50 -27 133 -116 428 -162 537 -8 19 -18 44 -23 55 -55
135 -129 290 -186 390 -19 33 -37 67 -41 75 -3 8 -19 34 -35 57 -15 23 -28 46
-28 52 0 6 -3 11 -7 11 -5 0 -20 21 -36 48 -35 59 -164 240 -187 262 -3 3 -16
18 -28 34 -111 145 -349 383 -547 548 -243 202 -647 438 -962 559 -13 5 -33
13 -45 19 -76 32 -379 121 -490 144 -156 32 -211 42 -288 51 -30 4 -66 9 -80
11 -80 12 -213 17 -435 17 -233 -1 -279 -3 -410 -19 -27 -4 -63 -8 -80 -10
-16 -1 -55 -7 -85 -13 -30 -6 -68 -13 -85 -16 -67 -11 -93 -17 -219 -50 -72
-18 -183 -51 -247 -72 l-116 -38 -2 90 c0 50 -3 106 -5 125 -3 19 -8 64 -11
100 -16 166 -97 508 -145 615 -5 11 -25 61 -45 110 -166 412 -483 817 -864
1105 -47 35 -87 68 -89 72 -2 4 -8 8 -14 8 -5 0 -44 23 -86 50 -42 28 -82 50
-88 50 -7 0 -14 4 -16 8 -1 5 -43 29 -93 53 -49 24 -91 47 -93 52 -2 4 -10 7
-18 7 -8 0 -33 8 -57 19 -68 30 -111 46 -119 43 -5 -1 -8 3 -8 9 0 6 -7 9 -15
6 -8 -4 -17 -2 -19 2 -3 5 -34 16 -68 26 -35 10 -67 20 -73 21 -15 5 -127 33
-150 38 -11 3 -31 7 -45 11 -36 8 -146 25 -194 30 -23 3 -57 7 -76 11 -45 7
-455 15 -462 9z m222 -1077 c0 -4 11 -3 24 2 13 5 26 6 29 4 3 -3 40 -7 83
-10 43 -3 81 -7 85 -10 4 -2 24 -6 45 -9 121 -16 311 -81 447 -154 108 -57
137 -75 137 -83 0 -5 5 -8 11 -8 12 0 92 -59 97 -72 2 -5 8 -8 12 -8 5 0 20
-10 33 -22 12 -13 41 -39 62 -59 268 -244 453 -616 493 -989 13 -122 4 -423
-14 -451 -2 -3 -5 -22 -8 -41 -6 -52 -44 -183 -77 -266 -30 -75 -107 -233
-118 -242 -3 -3 -12 -16 -20 -30 -32 -59 -126 -181 -193 -250 -240 -250 -512
-401 -848 -471 -111 -23 -368 -32 -495 -17 -179 21 -372 81 -535 166 -362 189
-638 507 -771 889 -31 89 -71 236 -68 249 1 5 -1 20 -4 34 -24 87 -25 390 -2
505 3 17 8 48 11 70 4 22 10 48 15 58 6 9 7 17 5 17 -3 0 -1 12 5 28 12 30 20
61 21 80 1 6 4 12 8 12 4 0 7 6 7 14 0 16 57 153 85 204 68 123 99 170 161
251 55 70 200 220 255 261 18 14 43 33 55 43 11 10 37 28 57 39 19 12 37 25
40 30 3 4 22 14 43 23 20 8 37 20 37 25 0 6 3 9 8 8 4 -1 26 8 49 20 23 12 49
22 57 22 8 0 16 4 18 9 3 9 188 74 248 87 47 11 50 11 53 14 1 1 16 3 32 5 17
2 50 8 75 13 25 4 57 8 73 7 15 -1 27 1 27 4 0 3 34 6 75 6 41 0 75 -3 75 -7z
m4125 -2452 c89 -8 258 -34 310 -48 22 -6 49 -12 60 -13 11 -1 27 -5 35 -8 8
-3 62 -20 120 -37 111 -33 212 -71 270 -100 19 -10 38 -18 43 -19 4 0 47 -21
97 -46 135 -68 277 -159 433 -279 54 -41 152 -131 234 -213 92 -93 253 -285
253 -302 0 -5 4 -11 8 -13 20 -8 178 -269 231 -383 34 -73 64 -139 65 -145 3
-11 59 -167 67 -185 5 -11 11 -29 12 -40 2 -11 7 -27 10 -35 6 -14 32 -117 42
-167 3 -13 8 -35 11 -50 7 -37 11 -60 18 -108 13 -90 18 -132 21 -173 1 -23 5
-45 8 -48 3 -3 1 -19 -3 -35 -5 -16 -5 -31 -1 -33 9 -6 7 -233 -2 -242 -3 -4
-2 -14 3 -24 5 -10 7 -20 4 -23 -4 -3 -8 -23 -10 -44 -11 -121 -15 -151 -29
-228 -3 -16 -8 -43 -11 -60 -3 -16 -10 -48 -16 -70 -7 -22 -11 -43 -10 -47 1
-4 -5 -25 -13 -47 -8 -23 -12 -41 -8 -41 3 0 1 -6 -4 -12 -9 -11 -20 -43 -28
-83 -16 -72 -168 -407 -229 -503 -14 -23 -26 -46 -26 -51 0 -5 -3 -11 -7 -13
-5 -1 -38 -48 -75 -103 -37 -55 -79 -112 -93 -127 -14 -15 -25 -29 -25 -32 0
-17 -267 -290 -344 -351 -27 -22 -54 -45 -60 -50 -23 -21 -153 -114 -216 -153
-36 -23 -70 -46 -77 -52 -7 -5 -19 -10 -28 -10 -8 0 -15 -3 -15 -7 0 -5 -19
-17 -43 -27 -23 -11 -49 -26 -58 -33 -9 -8 -27 -16 -39 -18 -13 -3 -26 -8 -29
-12 -3 -5 -33 -19 -66 -32 -33 -13 -75 -30 -93 -38 -53 -23 -142 -52 -142 -46
0 3 -6 1 -13 -5 -7 -6 -24 -13 -39 -16 -14 -2 -35 -9 -46 -15 -11 -6 -22 -8
-25 -5 -3 3 -12 2 -19 -2 -12 -8 -19 -10 -63 -19 -11 -2 -31 -6 -45 -9 -14 -4
-40 -9 -59 -12 -18 -3 -43 -8 -55 -11 -11 -3 -39 -6 -61 -8 -22 -2 -40 -4 -40
-5 0 -7 -235 -21 -335 -21 -189 1 -406 26 -557 65 -42 11 -68 17 -93 22 -31 7
-148 43 -175 54 -11 5 -56 22 -100 39 -114 42 -395 184 -403 204 -2 4 -10 7
-18 7 -8 0 -14 4 -14 8 0 5 -12 14 -26 21 -26 11 -195 134 -224 162 -8 8 -31
27 -50 43 -78 63 -209 196 -306 311 -58 68 -184 242 -192 265 -3 8 -12 23 -20
32 -17 20 -57 93 -116 209 -72 144 -168 405 -197 534 -7 33 -13 62 -14 65 -8
32 -16 71 -20 95 -2 17 -7 41 -10 55 -5 24 -9 60 -22 185 -13 125 -5 467 12
554 2 13 7 49 11 80 3 31 8 59 10 62 2 3 6 21 9 40 3 19 17 77 30 129 189 743
702 1367 1402 1706 193 94 472 183 673 214 41 6 86 14 100 16 14 2 70 7 125
10 55 4 101 7 102 8 5 5 258 -2 328 -8z m-4335 -3350 c76 -12 209 -56 278 -92
186 -99 315 -231 412 -423 25 -51 38 -89 77 -226 3 -11 7 -83 8 -160 3 -130
-7 -211 -32 -275 -3 -8 -8 -23 -10 -33 -6 -36 -71 -165 -111 -224 -58 -86
-126 -157 -207 -218 -66 -50 -214 -130 -259 -140 -12 -3 -46 -12 -76 -20 -113
-32 -254 -35 -390 -10 -14 3 -42 7 -62 11 -21 3 -38 10 -38 16 0 5 -4 7 -8 4
-5 -3 -22 2 -38 10 -16 9 -29 14 -29 13 0 -1 -24 8 -52 21 -29 12 -53 26 -53
31 0 5 -6 9 -12 9 -33 0 -192 141 -268 236 -23 29 -101 161 -104 176 -2 7 -9
27 -15 43 -17 39 -42 123 -47 155 -3 14 -7 36 -10 50 -6 34 -7 205 -1 260 3
25 12 66 20 93 8 26 13 47 11 47 -3 0 4 17 15 38 10 20 22 51 25 69 4 17 14
37 22 44 8 6 14 15 14 20 0 13 47 85 94 144 140 176 373 307 591 332 22 3 41
6 43 8 5 4 167 -3 212 -9z"/>
</g>
</svg>
