<svg xmlns="http://www.w3.org/2000/svg" viewBox="0 0 22 22" width="22" height="22"><path d="M6.63,12.69c-.17-.08-.36-.12-.54-.12-.15,0-.3,.03-.45,.08-.32,.12-.58,.36-.73,.67-.15,.31-.16,.67-.04,.99,.25,.67,.99,1.01,1.66,.77,.67-.25,1.01-.99,.77-1.66-.12-.32-.36-.58-.67-.73Z" fill="currentColor"/><path d="M10,0C4.48,0,0,4.48,0,10s4.48,10,10,10,10-4.48,10-10S15.52,0,10,0Zm2.27,16.79c-1.47,0-2.8-.6-3.77-1.56-.31,.55-.81,1.01-1.45,1.25h0c-.32,.12-.64,.17-.96,.17-1.14,0-2.21-.7-2.63-1.83-.26-.7-.23-1.46,.09-2.14,.31-.68,.87-1.19,1.57-1.45,.6-.22,1.24-.22,1.83-.02,.02-.37,.07-.73,.16-1.08-.09,.01-.17,.04-.26,.04-.09,0-.18,0-.27,0-.89,0-1.75-.32-2.43-.91-.31-.27-.35-.75-.08-1.06,.27-.31,.75-.35,1.06-.08,.45,.39,1.02,.58,1.61,.54,.59-.04,1.13-.31,1.52-.76,.39-.45,.58-1.02,.54-1.61-.04-.59-.31-1.13-.76-1.52-.92-.8-2.33-.7-3.13,.22-.39,.45-.58,1.03-.54,1.63,.03,.41-.28,.77-.69,.81-.42,.03-.77-.28-.81-.69-.08-1,.24-1.97,.9-2.73,1.34-1.55,3.7-1.71,5.24-.37,.75,.65,1.2,1.55,1.27,2.54,0,.1,0,.2,0,.3,.61-.25,1.28-.39,1.98-.39,1.43,0,2.77,.56,3.77,1.56,.29,.29,.29,.77,0,1.06s-.77,.29-1.06,0c-.72-.72-1.69-1.12-2.71-1.12-2.12,0-3.84,1.72-3.84,3.84s1.72,3.84,3.84,3.84,3.84-1.72,3.84-3.84c0-.41,.34-.75,.75-.75s.75,.34,.75,.75c0,2.94-2.39,5.34-5.34,5.34Z" fill="currentColor"/></svg>
