<svg xmlns="http://www.w3.org/2000/svg" viewBox="0 0 167.66 28.94"><defs><style>.cls-1{fill:#fff;}</style></defs><path d="M36.13,23.51L31.27,6.26c-.07-.21-.08-.34-.08-.5,0-.49,.37-.82,.88-.82,.47,0,.78,.25,.9,.73l4.15,15.71h.08l4.42-15.48c.19-.69,.5-.96,1.08-.96s.9,.28,1.07,.92l4.42,15.52h.09l4.15-15.71c.12-.49,.42-.73,.88-.73,.53,0,.9,.34,.9,.82,0,.16-.03,.3-.09,.54l-4.85,17.2c-.17,.57-.46,.83-.99,.83-.55,0-.84-.24-1.02-.83l-4.51-15.29h-.11l-4.51,15.29c-.18,.59-.47,.83-1.01,.83s-.82-.26-.99-.83Z"/><path d="M56.97,23.4V6.07c0-.58,.34-.94,.9-.94h5.58c3.64,0,6.1,2.39,6.1,5.92s-2.49,5.93-6.12,5.93h-4.67v6.42c0,.58-.34,.94-.9,.94s-.9-.36-.9-.94Zm6.05-8.03c2.93,0,4.68-1.62,4.68-4.32s-1.74-4.31-4.68-4.31h-4.26V15.37h4.26Z"/><path d="M71.73,20.36c-.08-.25-.12-.49-.12-.72,0-.58,.32-.95,.83-.95,.46,0,.75,.24,.87,.74,.49,2.19,2.57,3.4,5.3,3.4s4.89-1.52,4.89-3.68c0-1.79-1.19-2.87-4.11-3.55l-2.07-.46c-3.77-.84-5.35-2.46-5.35-5.09,0-3.07,2.77-5.22,6.5-5.22,3.15,0,5.71,1.61,6.36,4.11,.04,.16,.05,.34,.05,.57,0,.5-.33,.83-.82,.83s-.75-.25-.9-.72c-.54-2.03-2.36-3.15-4.75-3.15-2.57,0-4.6,1.34-4.6,3.51,0,1.73,1.17,2.82,4,3.45l2.07,.47c3.9,.88,5.47,2.36,5.47,5.01,0,3.38-2.72,5.55-6.83,5.55-3.59,0-6.14-1.7-6.79-4.1Z"/><path d="M88.05,23.44V11.1c0-.53,.34-.88,.82-.88s.83,.36,.83,.88v1.87h.04c.71-1.67,2.31-2.76,4.54-2.76,2.98,0,4.84,1.94,4.84,5.05v8.17c0,.55-.36,.94-.87,.94s-.87-.38-.87-.94v-7.9c0-2.4-1.33-3.77-3.6-3.77-2.4,0-3.98,1.71-3.98,4.26v7.41c0,.55-.36,.94-.87,.94s-.87-.38-.87-.94Z"/><path d="M102.15,6.51c0-.63,.53-1.15,1.16-1.15s1.17,.51,1.17,1.15-.53,1.16-1.17,1.16-1.16-.51-1.16-1.16Zm.29,16.93V11.15c0-.55,.36-.94,.87-.94s.87,.38,.87,.94v12.29c0,.55-.36,.94-.87,.94s-.87-.38-.87-.94Z"/><path d="M107.58,28V11.1c0-.53,.34-.88,.83-.88s.82,.36,.82,.88v2.24h.05c.75-1.82,2.49-3.12,4.72-3.12,3.47,0,5.84,2.82,5.84,7.08s-2.36,7.08-5.8,7.08c-2.21,0-3.94-1.27-4.67-3.05h-.05v6.67c0,.55-.36,.94-.87,.94s-.87-.38-.87-.94Zm10.48-10.71c0-3.34-1.71-5.54-4.36-5.54s-4.38,2.24-4.38,5.54,1.78,5.54,4.38,5.54,4.36-2.19,4.36-5.54Z"/><path d="M122.72,23.4V5.88c0-.58,.34-.94,.9-.94s.9,.36,.9,.94v7.71h11.13V5.88c0-.58,.36-.94,.91-.94s.9,.36,.9,.94V23.4c0,.58-.36,.94-.9,.94s-.91-.36-.91-.94V15.23h-11.13v8.17c0,.58-.34,.94-.9,.94s-.9-.36-.9-.94Z"/><path d="M140.92,19.35V11.15c0-.55,.37-.94,.88-.94s.87,.38,.87,.94v7.9c0,2.43,1.29,3.77,3.59,3.77s4-1.67,4-4.24v-7.42c0-.55,.36-.94,.87-.94s.87,.38,.87,.94v12.34c0,.5-.32,.88-.82,.88s-.83-.38-.83-.88v-1.89h-.04c-.73,1.69-2.37,2.77-4.55,2.77-2.98,0-4.84-1.94-4.84-5.02Z"/><path d="M155.39,23.52V5.84c0-.55,.37-.94,.87-.94s.88,.38,.88,.94v7.46h.04c.79-1.89,2.54-3.09,4.71-3.09,3.43,0,5.77,2.81,5.77,7.08s-2.33,7.08-5.8,7.08c-2.19,0-3.93-1.2-4.76-3.12h-.04v2.27c0,.51-.36,.86-.86,.86s-.82-.34-.82-.86Zm10.49-6.22c0-3.35-1.7-5.54-4.34-5.54s-4.42,2.25-4.42,5.54,1.83,5.54,4.42,5.54,4.34-2.18,4.34-5.54Z"/><circle cx="13.88" cy="13.88" r="13.88"/><path class="cls-1" d="M23.47,13.56c-.09-.26-.38-.39-.64-.29-.26,.1-.39,.38-.29,.64,.24,.65,.36,1.33,.36,2.03,0,3.24-2.63,5.87-5.87,5.87s-5.87-2.63-5.87-5.87,2.63-5.87,5.87-5.87c1.36,0,2.69,.48,3.73,1.34,.21,.18,.53,.15,.7-.07,.18-.21,.15-.53-.07-.7-1.22-1.01-2.78-1.57-4.37-1.57-1.23,0-2.38,.33-3.39,.9,.09-.42,.14-.84,.11-1.27-.09-1.23-.65-2.35-1.58-3.16-.93-.81-2.12-1.2-3.35-1.12-1.23,.09-2.35,.65-3.16,1.58-.87,1-1.26,2.32-1.09,3.63,.04,.27,.29,.46,.56,.43,.27-.04,.47-.29,.43-.56-.14-1.03,.18-2.07,.85-2.85,.63-.73,1.51-1.17,2.48-1.24,.95-.07,1.9,.24,2.63,.88,1.51,1.31,1.67,3.6,.36,5.11-1.31,1.51-3.6,1.67-5.11,.36-.21-.18-.52-.16-.7,.05-.18,.21-.16,.52,.05,.7,.85,.74,1.91,1.13,3.02,1.13,.11,0,.22,0,.33-.01,.42-.03,.81-.13,1.2-.27-.32,.8-.51,1.66-.51,2.58,0,.17,.01,.34,.03,.51-.11-.07-.22-.14-.34-.2-.81-.37-1.71-.41-2.55-.1-1.73,.63-2.61,2.55-1.98,4.28,.5,1.35,1.77,2.18,3.13,2.18,.38,0,.77-.07,1.15-.2h0c1.04-.38,1.76-1.23,2.04-2.22,1.26,1.59,3.2,2.62,5.38,2.62,3.79,0,6.87-3.08,6.87-6.87,0-.82-.14-1.62-.42-2.38Zm-14.22,7.91c-.59,.22-1.22,.19-1.79-.07-.57-.26-1-.73-1.21-1.32-.44-1.21,.18-2.56,1.39-3,.26-.1,.54-.15,.81-.15,.33,0,.67,.07,.98,.22,.57,.26,1,.73,1.21,1.32,.44,1.21-.18,2.56-1.39,3Z"/></svg>